<svg version="1.1" id="Layer_1" xmlns="http://www.w3.org/2000/svg" xmlns:xlink="http://www.w3.org/1999/xlink" x="0px" y="0px"
	  viewBox="0 0 960 560" enable-background="new 0 0 960 560" xml:space="preserve">
<g>
	<path fill-rule="evenodd" clip-rule="evenodd" d="M358.201,316.021c0-47.727,0-95.412,0-143.363c7.42,0,14.47,0,22.014,0
		c0,48.005,0,96.028,0,144.217c8.705,1.149,16.951,2.238,25.666,3.39c0-42.2,0-84.222,0-126.561c7.596,0,14.748,0,22.392,0
		c0,1.475,0,2.93,0,4.384c0,40.737,0.038,81.476-0.07,122.213c-0.009,3.317,0.695,4.797,4.279,5.325
		c7.01,1.032,13.926,2.704,21.396,4.217c0-58.693,0-117.073,0-175.7c7.646,0,14.818,0,22.328,0c0,59.53,0,118.836,0,178.693
		c8.567,0.554,16.836,1.086,25.513,1.646c0-51.081,0-101.751,0-152.758c7.535,0,14.702,0,22.301,0c0,50.551,0,101.213,0,152.563
		c8.729-0.444,17.004-0.867,25.726-1.313c0-38.977,0-77.643,0-116.805c7.16,0,13.869-0.048,20.575,0.083
		c0.597,0.012,1.439,1.108,1.687,1.859c0.298,0.904,0.084,1.977,0.085,2.976c0.001,34.865,0,69.729,0,104.595
		c0,1.462,0,2.926,0,5.307c12.562-2.55,24.516-4.874,36.419-7.44c4.743-1.023,9.339-2.721,14.072-3.798
		c1.258-0.287,2.779,0.583,4.18,0.922c-0.944,1.051-1.717,2.753-2.857,3.054c-22.301,5.858-44.53,12.057-67.013,17.134
		c-20.392,4.606-41.215,6.377-62.154,5.101c-23.629-1.44-46.637-6.562-69.584-12.092c-17.442-4.203-34.961-8.113-52.53-11.753
		c-22.405-4.641-42.154,2.026-60.21,15.091c-1.619,1.171-3.074,2.651-4.838,3.508c-1.059,0.515-2.57,0.099-3.878,0.1
		c0.435-1.125,0.545-2.639,1.354-3.315c10.882-9.103,23.089-15.711,37.021-18.774C347.175,317.604,352.387,316.98,358.201,316.021z"
		/>
</g>
</svg>
